PathFileType	4	(x/y/z)	S04_P20_T07.trc
DataRate	CameraRate	NumFrames	NumMarkers	Units	OrigDataRate	OrigDataStartFrame	OrigNumFrames
240	240	9	51	mm	240	231	369
Frame#	Time	Sternum			R.Acromium			L.Acromium			Top.Head			R.ASIS			L.ASIS			R.PSIS			L.PSIS			R.Great.Tro			L.Great.Tro			R.Iliac.Crest			L.Iliac.Crest			V.Sacral			R.Thigh.Upper.Post			R.Thigh.Lower.Ant			R.Thigh.Lower.Post			R.Thigh.Upper.Ant			R.Knee.Lat			R.Knee.Med			R.Shank.Upper.Post			R.Shank.Lower.Ant			R.Shank.Lower.Post			R.Shank.Upper.Ant			R.Ankle.Lat			R.Ankle.Med			R.Heel.Upper			R.Heel.Med			R.Heel.Lat			R.Toe.Lat			R.Toe.Med			R.Toe.Tip			L.Thigh.Upper.Post			L.Thigh.Lower.Ant			L.Thigh.Lower.Post			L.Thigh.Upper.Ant			L.Knee.Lat			L.Knee.Med			L.Shank.Upper.Post			L.Shank.Lower.Ant			L.Shank.Lower.Post			L.Shank.Upper.Ant			L.Ankle.Lat			L.Ankle.Med			L.Heel.Upper			L.Heel.Med			L.Heel.Lat			L.Toe.Lat			L.Toe.Med			L.Toe.Tip			Cervical.Spine			Back			
		X1	Y1	Z1	X2	Y2	Z2	X3	Y3	Z3	X4	Y4	Z4	X5	Y5	Z5	X6	Y6	Z6	X7	Y7	Z7	X8	Y8	Z8	X9	Y9	Z9	X10	Y10	Z10	X11	Y11	Z11	X12	Y12	Z12	X13	Y13	Z13	X14	Y14	Z14	X15	Y15	Z15	X16	Y16	Z16	X17	Y17	Z17	X18	Y18	Z18	X19	Y19	Z19	X20	Y20	Z20	X21	Y21	Z21	X22	Y22	Z22	X23	Y23	Z23	X24	Y24	Z24	X25	Y25	Z25	X26	Y26	Z26	X27	Y27	Z27	X28	Y28	Z28	X29	Y29	Z29	X30	Y30	Z30	X31	Y31	Z31	X32	Y32	Z32	X33	Y33	Z33	X34	Y34	Z34	X35	Y35	Z35	X36	Y36	Z36	X37	Y37	Z37	X38	Y38	Z38	X39	Y39	Z39	X40	Y40	Z40	X41	Y41	Z41	X42	Y42	Z42	X43	Y43	Z43	X44	Y44	Z44	X45	Y45	Z45	X46	Y46	Z46	X47	Y47	Z47	X48	Y48	Z48	X49	Y49	Z49	X50	Y50	Z50	X51	Y51	Z51	

231	0.95833	-131.64	1267.6	246.47	-230.9	1494.4	438.12	-285.21	1482.3	91.626	-238.1	1821	249.34	-169.51	982.02	397.16	-165.36	1006.9	148.02	-379.8	1016.4	289.3	-370.64	1020	208.81	-268.04	903.61	452.84	-267.58	916.37	72.66	-251.5	1074	435.32	-272.18	1083.5	99.083	-393.72	975.46	248.49	-316.63	654.79	431.26	-257.28	561.64	393.04	-332.16	566.16	415.55	-229.05	666.99	416.6	-329.82	492.79	403.92	-351.9	499.17	270.9	-462.54	293.16	390.44	-417.14	202.26	345.86	-480.61	226.66	370.79	-401.71	268.97	373.41	-498.37	113.39	345.69	-479.44	126.25	258.41	-569.68	87.393	289.69	-562.01	55.493	261.11	-568	56.323	325.11	-401.15	38.544	379.98	-360.05	36.164	260.97	-297.89	47.529	311.32	-206.78	678.03	85.834	-96.68	616.13	86.738	-166.73	598.86	98.965	-141.39	693.39	70.033	-94.634	526.92	102.49	-83.096	516.8	230.75	-115.39	329.73	107.23	-19.891	272.95	100.7	-82.403	259.1	112.67	-52.6	342.3	94.325	23.011	119.06	117.46	27.864	133.73	209.92	-37.569	62.427	166.96	-19.119	43.942	202.82	-22.382	37.029	141.12	149.67	95.296	95.055	178.86	120.94	207.48	225.3	150.7	156.95	-307.41	1542.3	277.24	-390.81	1284.8	265.51
232	0.9625	-126.15	1267.1	245.95	-225.55	1493.8	437.58	-279.77	1481.7	91.066	-232.63	1820.4	248.85	-163.81	981.5	396.84	-159.48	1006.4	147.58	-374.05	1015.7	288.85	-364.92	1019.4	208.32	-262.39	903.06	452.46	-261.65	915.74	72.318	-245.86	1073.4	434.95	-266.57	1082.9	98.679	-387.96	974.77	248.04	-311.23	654.35	430.88	-251.91	561.12	392.8	-326.83	565.73	415.15	-223.61	666.47	416.32	-324.8	492.29	403.63	-346.55	498.77	270.61	-459.57	293.95	390.24	-415.13	202.53	345.7	-478.37	227.64	370.57	-398.96	269.07	373.24	-497.42	114.54	345.6	-478.45	127.19	258.28	-568.96	89.05	289.59	-561.55	57.13	260.97	-567.56	57.953	324.96	-400.95	38.634	379.94	-359.83	36.094	260.99	-297.55	47.017	311.33	-201.34	677.43	85.686	-91.419	615.27	86.828	-161.53	598.18	98.988	-135.95	692.61	69.962	-89.46	526.1	102.63	-78.307	516.02	230.88	-109.96	328.82	107.33	-14.38	272.16	101.12	-76.919	258.25	112.85	-47.149	341.46	94.662	28.701	118.52	117.98	33.261	133.11	210.45	-31.876	61.922	167.27	-13.478	43.384	203.14	-16.609	36.565	141.39	155.43	95.228	95.905	184.23	120.78	208.41	230.73	150.79	158.05	-302.1	1541.7	276.7	-385.36	1284.1	265.04
233	0.96667	-120.65	1266.6	245.42	-220.21	1493.2	437.01	-274.36	1481	90.49	-227.16	1819.9	248.35	-158.08	981.02	396.49	-153.58	1006	147.11	-368.28	1015	288.39	-359.18	1018.7	207.82	-256.7	902.52	452.07	-255.69	915.13	71.964	-240.21	1072.8	434.57	-260.93	1082.2	98.258	-382.19	974.12	247.58	-305.72	653.9	430.49	-246.39	560.6	392.59	-321.37	565.29	414.75	-218.06	665.97	416.06	-319.61	491.77	403.35	-341.03	498.34	270.33	-456.47	294.8	390.07	-413.03	202.84	345.56	-476.03	228.68	370.38	-396.12	269.21	373.09	-496.4	115.77	345.53	-477.34	128.2	258.19	-568.18	90.858	289.52	-561.04	58.927	260.85	-567.08	59.727	324.85	-400.74	38.732	379.9	-359.62	36.04	261.01	-297.22	46.519	311.34	-195.8	676.87	85.531	-86.046	614.48	86.943	-156.22	597.54	99	-130.41	691.89	69.918	-84.177	525.32	102.79	-73.424	515.3	230.98	-104.69	328.01	107.39	-9.1267	271.31	101.56	-71.71	257.44	113.02	-41.841	340.62	95.016	33.867	117.91	118.5	38.125	132.38	211	-26.809	61.5	167.56	-8.5282	42.864	203.43	-11.522	36.156	141.64	160.6	94.867	96.811	189.02	120.25	209.41	235.64	150.42	159.24	-296.78	1541.2	276.14	-379.9	1283.5	264.54
234	0.97083	-115.14	1266.1	244.87	-214.88	1492.7	436.44	-268.96	1480.4	89.898	-221.69	1819.5	247.83	-152.31	980.56	396.13	-147.65	1005.6	146.62	-362.48	1014.4	287.91	-353.42	1018.1	207.3	-250.96	902.01	451.67	-249.7	914.55	71.599	-234.53	1072.3	434.18	-255.27	1081.6	97.822	-376.4	973.49	247.11	-300.1	653.45	430.11	-240.72	560.09	392.42	-315.76	564.84	414.37	-212.4	665.49	415.82	-314.26	491.25	403.09	-335.34	497.88	270.08	-453.25	295.7	389.93	-410.83	203.21	345.45	-473.57	229.79	370.2	-393.16	269.4	372.97	-495.31	117.09	345.51	-476.12	129.3	258.13	-567.31	92.823	289.48	-560.49	60.891	260.77	-566.54	61.655	324.76	-400.52	38.839	379.88	-359.41	36.002	261.03	-296.89	46.034	311.35	-190.17	676.35	85.366	-80.568	613.77	87.081	-150.79	596.96	99.001	-124.79	691.23	69.9	-78.79	524.6	102.95	-68.454	514.62	231.06	-99.572	327.29	107.43	-4.1178	270.42	102.01	-66.762	256.67	113.16	-36.668	339.77	95.383	38.537	117.22	119.02	42.484	131.56	211.55	-22.336	61.161	167.83	-4.2367	42.384	203.69	-7.0916	35.799	141.87	165.21	94.221	97.764	193.27	119.36	210.46	240.07	149.62	160.49	-291.47	1540.6	275.56	-374.43	1282.8	264.03
235	0.975	-109.61	1265.7	244.3	-209.55	1492.2	435.84	-263.57	1479.8	89.289	-216.22	1819	247.3	-146.52	980.13	395.74	-141.69	1005.2	146.1	-356.65	1013.8	287.41	-347.64	1017.5	206.78	-245.19	901.52	451.26	-243.68	913.99	71.223	-228.83	1071.8	433.79	-249.59	1081	97.369	-370.59	972.9	246.62	-294.35	652.98	429.73	-234.9	559.58	392.29	-310	564.38	413.99	-206.61	665.02	415.61	-308.74	490.71	402.85	-329.47	497.4	269.86	-449.89	296.66	389.82	-408.54	203.63	345.36	-471	230.97	370.06	-390.08	269.62	372.87	-494.13	118.51	345.51	-474.78	130.48	258.11	-566.35	94.954	289.48	-559.86	63.032	260.71	-565.93	63.744	324.71	-400.27	38.96	379.86	-359.21	35.98	261.07	-296.57	45.563	311.34	-184.47	675.87	85.191	-74.996	613.12	87.239	-145.27	596.41	98.99	-119.07	690.63	69.905	-73.308	523.93	103.12	-63.407	513.99	231.12	-94.6	326.65	107.42	0.66309	269.48	102.48	-62.058	255.95	113.28	-31.622	338.92	95.758	42.74	116.46	119.54	46.37	130.65	212.11	-18.417	60.904	168.08	-0.56324	41.947	203.93	-3.2789	35.492	142.06	169.31	93.3	98.752	197	118.14	211.55	244.06	148.4	161.8	-286.17	1540.1	274.95	-368.94	1282.2	263.49
236	0.97917	-104.07	1265.3	243.73	-204.23	1491.8	435.23	-258.19	1479.3	88.665	-210.75	1818.6	246.76	-140.7	979.74	395.33	-135.72	1004.9	145.57	-350.8	1013.3	286.91	-341.84	1017	206.24	-239.37	901.06	450.83	-237.64	913.47	70.837	-223.11	1071.3	433.38	-243.89	1080.4	96.899	-364.76	972.35	246.13	-288.49	652.51	429.36	-228.9	559.08	392.2	-304.08	563.89	413.63	-200.71	664.57	415.42	-303.04	490.17	402.64	-323.41	496.88	269.66	-446.39	297.67	389.73	-406.13	204.11	345.3	-468.3	232.23	369.93	-386.89	269.89	372.8	-492.87	120.04	345.56	-473.31	131.75	258.14	-565.28	97.258	289.52	-559.17	65.358	260.67	-565.24	66.005	324.68	-400.01	39.098	379.85	-359.02	35.974	261.11	-296.26	45.107	311.33	-178.69	675.43	85.005	-69.34	612.53	87.413	-139.66	595.91	98.965	-113.29	690.08	69.93	-67.74	523.3	103.29	-58.293	513.41	231.14	-89.762	326.09	107.38	5.2339	268.51	102.96	-57.578	255.27	113.36	-26.693	338.07	96.137	46.512	115.64	120.05	49.82	129.65	212.66	-15.008	60.727	168.3	2.5397	41.558	204.14	-0.038257	35.235	142.23	172.92	92.121	99.762	200.27	116.6	212.67	247.64	146.79	163.14	-280.87	1539.6	274.33	-363.44	1281.6	262.93
237	0.98333	-98.519	1265	243.14	-198.92	1491.3	434.6	-252.83	1478.8	88.026	-205.28	1818.2	246.21	-134.85	979.38	394.9	-129.72	1004.6	145.02	-344.93	1012.7	286.39	-336.02	1016.5	205.69	-233.51	900.62	450.39	-231.59	912.97	70.442	-217.37	1070.9	432.96	-238.15	1079.8	96.414	-358.92	971.83	245.62	-282.49	652.03	429	-222.74	558.59	392.15	-298	563.39	413.29	-194.68	664.14	415.25	-297.16	489.63	402.45	-317.17	496.33	269.48	-442.73	298.75	389.67	-403.61	204.66	345.27	-465.46	233.56	369.84	-383.56	270.21	372.76	-491.5	121.68	345.65	-471.69	133.12	258.2	-564.1	99.745	289.59	-558.38	67.879	260.66	-564.47	68.445	324.68	-399.74	39.257	379.85	-358.83	35.987	261.15	-295.96	44.665	311.31	-172.86	675.02	84.806	-63.613	612.01	87.598	-133.98	595.46	98.924	-107.43	689.6	69.97	-62.1	522.73	103.47	-53.125	512.87	231.14	-85.048	325.61	107.3	9.6137	267.51	103.44	-53.302	254.63	113.41	-21.872	337.23	96.516	49.891	114.77	120.53	52.874	128.59	213.2	-12.059	60.627	168.5	5.1252	41.22	204.31	2.6821	35.026	142.36	176.09	90.707	100.78	203.11	114.79	213.8	250.84	144.82	164.49	-275.57	1539.2	273.69	-357.92	1281	262.35
238	0.9875	-92.95	1264.7	242.55	-193.63	1490.9	433.96	-247.47	1478.3	87.371	-199.81	1817.9	245.64	-128.98	979.06	394.45	-123.72	1004.3	144.45	-339.02	1012.3	285.85	-330.18	1016	205.13	-227.61	900.22	449.93	-225.52	912.51	70.039	-211.61	1070.5	432.52	-232.39	1079.3	95.911	-353.06	971.35	245.09	-276.36	651.53	428.65	-216.4	558.1	392.15	-291.75	562.86	412.97	-188.52	663.73	415.12	-291.08	489.07	402.28	-310.74	495.76	269.33	-438.91	299.9	389.64	-400.96	205.27	345.27	-462.48	234.98	369.77	-380.09	270.59	372.74	-490.03	123.44	345.77	-469.93	134.58	258.31	-562.79	102.42	289.69	-557.5	70.604	260.67	-563.61	71.074	324.71	-399.44	39.442	379.85	-358.65	36.018	261.19	-295.67	44.237	311.27	-166.98	674.66	84.593	-57.829	611.54	87.788	-128.23	595.05	98.863	-101.53	689.17	70.021	-56.4	522.2	103.64	-47.916	512.36	231.11	-80.445	325.2	107.18	13.823	266.5	103.91	-49.205	254.03	113.43	-17.15	336.41	96.887	52.92	113.85	120.99	55.577	127.48	213.71	-9.5142	60.6	168.66	7.2503	40.936	204.46	4.9379	34.863	142.47	178.86	89.085	101.79	205.58	112.73	214.92	253.72	142.54	165.83	-270.27	1538.7	273.03	-352.39	1280.5	261.75
239	0.99167	-87.368	1264.4	241.94	-188.34	1490.5	433.3	-242.12	1477.8	86.7	-194.34	1817.6	245.07	-123.08	978.77	393.98	-117.7	1004	143.89	-333.1	1011.8	285.31	-324.33	1015.6	204.56	-221.67	899.83	449.46	-219.44	912.08	69.627	-205.82	1070.1	432.08	-226.61	1078.8	95.392	-347.19	970.92	244.56	-270.1	651.02	428.31	-209.88	557.62	392.18	-285.33	562.32	412.67	-182.23	663.34	415.01	-284.8	488.5	402.15	-304.11	495.15	269.21	-434.92	301.11	389.63	-398.17	205.96	345.29	-459.33	236.48	369.73	-376.48	271.03	372.76	-488.44	125.31	345.94	-468	136.15	258.46	-561.33	105.3	289.82	-556.49	73.545	260.69	-562.63	73.903	324.76	-399.11	39.66	379.85	-358.46	36.072	261.23	-295.39	43.822	311.23	-161.07	674.34	84.362	-52.001	611.13	87.977	-122.44	594.67	98.781	-95.585	688.79	70.079	-50.656	521.71	103.8	-42.681	511.89	231.05	-75.941	324.87	107.02	17.882	265.48	104.37	-45.266	253.48	113.4	-12.518	335.6	97.244	55.64	112.9	121.42	57.974	126.34	214.2	-7.3206	60.642	168.8	8.9738	40.709	204.57	6.7865	34.746	142.55	181.27	87.281	102.78	207.72	110.46	216.01	256.3	139.98	167.14	-264.98	1538.3	272.34	-346.85	1280	261.13
